<svg width="46" height="53" viewBox="0 0 46 53" fill="none" xmlns="http://www.w3.org/2000/svg">
<circle cx="34.8485" cy="11.1515" r="11.1515" fill="#ECA824"/>
<path d="M36.9851 21.0788C36.6225 17.8111 35.1604 14.7636 32.8385 12.4358C30.5167 10.1081 27.4729 8.63829 24.2061 8.26741C20.9393 7.89652 17.6435 8.64656 14.8589 10.3946C12.0743 12.1425 9.96623 14.7848 8.88031 17.888C6.39194 18.0917 4.0788 19.25 2.42511 21.1205C0.771413 22.991 -0.094647 25.4287 0.00821769 27.9232C0.111082 30.4178 1.1749 32.7759 2.97698 34.5039C4.77906 36.2319 7.1797 37.1958 9.67639 37.194H37.0721C39.2091 37.194 41.2586 36.345 42.7697 34.8339C44.2808 33.3229 45.1297 31.2734 45.1297 29.1364C45.1297 26.9994 44.2808 24.9499 42.7697 23.4388C41.2586 21.9277 39.2091 21.0788 37.0721 21.0788H36.9851Z" fill="#CFD6CF"/>
<rect x="11.0375" y="39" width="2.89382" height="8.57882" rx="1.44691" transform="rotate(20.7362 11.0375 39)" fill="#00A6CA"/>
<rect x="17" y="39" width="2.89382" height="13.556" rx="1.44691" transform="rotate(20.7362 17 39)" fill="#00A6CA"/>
<rect x="23" y="39" width="2.89382" height="11.1183" rx="1.44691" transform="rotate(20.7362 23 39)" fill="#00A6CA"/>
<rect x="29" y="39" width="2.79169" height="12.8436" rx="1.39585" transform="rotate(20.7362 29 39)" fill="#00A6CA"/>
<rect x="34.624" y="39" width="2.79169" height="10.2354" rx="1.39585" transform="rotate(20.7362 34.624 39)" fill="#00A6CA"/>
</svg>
