<svg width="45" height="29" viewBox="0 0 45 29" fill="none" xmlns="http://www.w3.org/2000/svg">
<path d="M44.6617 8.63013C44.331 8.39403 41.3739 6.3098 39.2954 6.3098C38.0673 6.3098 37.1225 6.96926 36.2817 7.55545C35.6298 8.00324 35.0157 8.43474 34.4489 8.43474C33.9387 8.43474 33.3529 8.01952 32.7294 7.57988C31.8886 6.98555 30.9344 6.3098 29.6873 6.3098C28.4497 6.3098 27.5238 6.97741 26.7019 7.5636C26.0689 8.01952 25.4831 8.44288 24.9257 8.44288C24.3494 8.44288 23.7353 8.01138 23.0835 7.54731C22.271 6.96926 21.3451 6.31795 20.1642 6.31795C18.936 6.31795 17.9912 6.97741 17.1504 7.5636C16.4985 8.01138 15.8844 8.44288 15.3176 8.44288C14.7602 8.44288 14.165 8.01138 13.5414 7.5636C12.7195 6.97741 11.7936 6.3098 10.556 6.3098C9.31839 6.3098 8.39253 6.97741 7.5706 7.5636C6.93761 8.01952 6.35186 8.44288 5.79446 8.44288C4.79302 8.44288 2.70511 7.30307 1.54306 6.49706C1.13682 6.2121 0.541624 6.26909 0.21096 6.61918C-0.119704 6.96926 -0.0535709 7.48218 0.352673 7.76713C0.692785 8.00324 3.72545 10.0793 5.79446 10.0793C7.03209 10.0793 7.95795 9.41172 8.77988 8.82553C9.41287 8.36961 9.99861 7.94625 10.556 7.94625C11.1134 7.94625 11.7086 8.37775 12.3322 8.82553C13.1541 9.41172 14.08 10.0793 15.3176 10.0793C16.5458 10.0793 17.4905 9.41986 18.3313 8.83367C18.9832 8.38589 19.5973 7.95439 20.1642 7.95439C20.6743 7.95439 21.2601 8.36961 21.8836 8.80925C22.7245 9.40358 23.6787 10.0793 24.9257 10.0793C26.1634 10.0793 27.0892 9.41172 27.9112 8.82553C28.5441 8.36961 29.1299 7.94625 29.6873 7.94625C30.2636 7.94625 30.8777 8.37775 31.5296 8.84182C32.3421 9.41986 33.2679 10.0712 34.4489 10.0712C35.677 10.0712 36.6218 9.41172 37.4626 8.82553C38.1145 8.37775 38.7286 7.94625 39.2954 7.94625C40.2874 7.94625 42.3187 9.07792 43.4429 9.88393C43.6224 10.0061 43.8303 10.0712 44.0476 10.0712C44.3215 10.0712 44.5861 9.97349 44.7845 9.77809C45.1151 9.428 45.0584 8.91509 44.6617 8.63013Z" fill="url(#paint0_linear)"/>
<path d="M0.352673 1.45733C0.692785 1.69344 3.72545 3.76952 5.79446 3.76952C7.03209 3.76952 7.95795 3.10192 8.77988 2.51573C9.41287 2.05981 9.99861 1.63645 10.556 1.63645C11.1134 1.63645 11.7086 2.06795 12.3322 2.51573C13.1541 3.10192 14.08 3.76952 15.3176 3.76952C16.5458 3.76952 17.4905 3.11006 18.3313 2.52387C18.9832 2.07609 19.5973 1.64459 20.1642 1.64459C20.6743 1.64459 21.2601 2.0598 21.8836 2.49945C22.7245 3.09378 23.6787 3.76952 24.9257 3.76952C26.1634 3.76952 27.0892 3.10192 27.9112 2.51573C28.5441 2.05981 29.1299 1.63645 29.6873 1.63645C30.2636 1.63645 30.8777 2.06795 31.5296 2.53201C32.3421 3.11006 33.2679 3.76138 34.4489 3.76138C35.677 3.76138 36.6218 3.10192 37.4626 2.51573C38.1145 2.06795 38.7286 1.63645 39.2954 1.63645C40.2874 1.63645 42.3187 2.76812 43.4429 3.57413C43.6224 3.69625 43.8303 3.76138 44.0476 3.76138C44.3215 3.76138 44.5861 3.66368 44.7845 3.46829C45.1151 3.1182 45.0584 2.60528 44.6617 2.32033C44.331 2.07609 41.3739 0 39.2954 0C38.0673 0 37.1225 0.659462 36.2817 1.24565C35.6298 1.69343 35.0157 2.12494 34.4489 2.12494C33.9387 2.12494 33.3529 1.70972 32.7294 1.27008C31.8886 0.675749 30.9344 0 29.6873 0C28.4497 0 27.5238 0.667606 26.7019 1.2538C26.0689 1.70972 25.4831 2.13308 24.9257 2.13308C24.3494 2.13308 23.7353 1.70158 23.0835 1.23751C22.271 0.659464 21.3451 0.0081445 20.1642 0.0081445C18.936 0.0081445 17.9912 0.667606 17.1504 1.2538C16.4985 1.70158 15.8844 2.13308 15.3176 2.13308C14.7602 2.13308 14.165 1.70158 13.5414 1.2538C12.7195 0.667606 11.7936 0 10.556 0C9.31839 0 8.39253 0.667606 7.5706 1.2538C6.93761 1.70972 6.35186 2.13308 5.79446 2.13308C4.79302 2.13308 2.70511 0.993264 1.54306 0.187254C1.13682 -0.0976992 0.541624 -0.0407086 0.21096 0.309377C-0.119704 0.659462 -0.0535709 1.17238 0.352673 1.45733Z" fill="url(#paint1_linear)"/>
<path d="M44.6617 21.2412C44.331 21.0051 41.3739 18.9209 39.2954 18.9209C38.0673 18.9209 37.1225 19.5804 36.2817 20.1665C35.6298 20.6143 35.0157 21.0458 34.4489 21.0458C33.9387 21.0458 33.3529 20.6306 32.7294 20.191C31.8886 19.5966 30.9344 18.9209 29.6873 18.9209C28.4497 18.9209 27.5238 19.5885 26.7019 20.1747C26.0689 20.6306 25.4831 21.054 24.9257 21.054C24.3494 21.054 23.7353 20.6225 23.0835 20.1584C22.271 19.5804 21.3451 18.929 20.1642 18.929C18.936 18.929 17.9912 19.5885 17.1504 20.1747C16.4985 20.6225 15.8844 21.054 15.3176 21.054C14.7602 21.054 14.165 20.6225 13.5414 20.1747C12.7195 19.5885 11.7936 18.9209 10.556 18.9209C9.31839 18.9209 8.39253 19.5885 7.5706 20.1747C6.93761 20.6306 6.35186 21.054 5.79446 21.054C4.79302 21.054 2.70511 19.9142 1.54306 19.1081C1.13682 18.8232 0.541624 18.8802 0.21096 19.2303C-0.119704 19.5804 -0.0535709 20.0933 0.352673 20.3782C0.692785 20.6143 3.72545 22.6904 5.79446 22.6904C7.03209 22.6904 7.95795 22.0228 8.77988 21.4366C9.41287 20.9807 9.99861 20.5573 10.556 20.5573C11.1134 20.5573 11.7086 20.9888 12.3322 21.4366C13.1541 22.0228 14.08 22.6904 15.3176 22.6904C16.5458 22.6904 17.4905 22.031 18.3313 21.4448C18.9832 20.997 19.5973 20.5655 20.1642 20.5655C20.6743 20.5655 21.2601 20.9807 21.8836 21.4203C22.7245 22.0147 23.6787 22.6904 24.9257 22.6904C26.1634 22.6904 27.0892 22.0228 27.9112 21.4366C28.5441 20.9807 29.1299 20.5573 29.6873 20.5573C30.2636 20.5573 30.8777 20.9888 31.5296 21.4529C32.3421 22.0309 33.2679 22.6823 34.4489 22.6823C35.677 22.6823 36.6218 22.0228 37.4626 21.4366C38.1145 20.9888 38.7286 20.5573 39.2954 20.5573C40.2874 20.5573 42.3187 21.689 43.4429 22.495C43.6224 22.6171 43.8303 22.6823 44.0476 22.6823C44.3215 22.6823 44.5861 22.5846 44.7845 22.3892C45.1151 22.0391 45.0584 21.5262 44.6617 21.2412Z" fill="url(#paint2_linear)"/>
<path d="M44.6617 14.9397C44.331 14.7036 41.3739 12.6194 39.2954 12.6194C38.0673 12.6194 37.1225 13.2788 36.2817 13.865C35.6298 14.3128 35.0157 14.7443 34.4489 14.7443C33.9387 14.7443 33.3529 14.3291 32.7294 13.8895C31.8886 13.2951 30.9344 12.6194 29.6873 12.6194C28.4497 12.6194 27.5238 13.287 26.7019 13.8732C26.0689 14.3291 25.4831 14.7525 24.9257 14.7525C24.3494 14.7525 23.7353 14.321 23.0835 13.8569C22.271 13.2788 21.3451 12.6275 20.1642 12.6275C18.936 12.6275 17.9912 13.287 17.1504 13.8732C16.4985 14.321 15.8844 14.7525 15.3176 14.7525C14.7602 14.7525 14.165 14.321 13.5414 13.8732C12.7195 13.287 11.7936 12.6194 10.556 12.6194C9.31839 12.6194 8.39253 13.287 7.5706 13.8732C6.93761 14.3291 6.35186 14.7525 5.79446 14.7525C4.79302 14.7525 2.70511 13.6126 1.54306 12.8066C1.13682 12.5217 0.541624 12.5787 0.21096 12.9288C-0.119704 13.2788 -0.0535709 13.7918 0.352673 14.0767C0.692785 14.3128 3.72545 16.3889 5.79446 16.3889C7.03209 16.3889 7.95795 15.7213 8.77988 15.1351C9.41287 14.6792 9.99861 14.2558 10.556 14.2558C11.1134 14.2558 11.7086 14.6873 12.3322 15.1351C13.1541 15.7213 14.08 16.3889 15.3176 16.3889C16.5458 16.3889 17.4905 15.7294 18.3313 15.1433C18.9832 14.6955 19.5973 14.264 20.1642 14.264C20.6743 14.264 21.2601 14.6792 21.8836 15.1188C22.7245 15.7132 23.6787 16.3889 24.9257 16.3889C26.1634 16.3889 27.0892 15.7213 27.9112 15.1351C28.5441 14.6792 29.1299 14.2558 29.6873 14.2558C30.2636 14.2558 30.8777 14.6873 31.5296 15.1514C32.3421 15.7294 33.2679 16.3808 34.4489 16.3808C35.677 16.3808 36.6218 15.7213 37.4626 15.1351C38.1145 14.6873 38.7286 14.2558 39.2954 14.2558C40.2874 14.2558 42.3187 15.3875 43.4429 16.1935C43.6224 16.3156 43.8303 16.3808 44.0476 16.3808C44.3215 16.3808 44.5861 16.2749 44.7845 16.0877C45.1151 15.7376 45.0584 15.2247 44.6617 14.9397Z" fill="url(#paint3_linear)"/>
<defs>
<linearGradient id="paint0_linear" x1="3.75" y1="0.807908" x2="45.3315" y2="19.3938" gradientUnits="userSpaceOnUse">
<stop stop-color="#53E0FF"/>
<stop offset="1" stop-color="#E9FBFF"/>
</linearGradient>
<linearGradient id="paint1_linear" x1="3.75" y1="0.807908" x2="45.3315" y2="19.3938" gradientUnits="userSpaceOnUse">
<stop stop-color="#53E0FF"/>
<stop offset="1" stop-color="#E9FBFF"/>
</linearGradient>
<linearGradient id="paint2_linear" x1="3.75" y1="0.807908" x2="45.3315" y2="19.3938" gradientUnits="userSpaceOnUse">
<stop stop-color="#53E0FF"/>
<stop offset="1" stop-color="#E9FBFF"/>
</linearGradient>
<linearGradient id="paint3_linear" x1="3.75" y1="0.807908" x2="45.3315" y2="19.3938" gradientUnits="userSpaceOnUse">
<stop stop-color="#53E0FF"/>
<stop offset="1" stop-color="#E9FBFF"/>
</linearGradient>
</defs>
</svg>
