<svg width="109" height="112" viewBox="0 0 109 112" fill="none" xmlns="http://www.w3.org/2000/svg">
<path d="M90.4987 27.763C89.0962 20.5684 85.4686 14.0191 80.1464 9.07263C74.8242 4.12615 68.0865 1.04195 60.9185 0.270994C53.7504 -0.499964 46.528 1.08275 40.3072 4.78773C34.0863 8.4927 29.1934 14.1256 26.3438 20.8629C23.1481 20.4882 19.9109 20.7813 16.8304 21.7241C13.7499 22.6668 10.8909 24.2395 8.42847 26.3457C5.96603 28.452 3.95195 31.0475 2.50955 33.9734C1.06716 36.8993 0.226797 40.0939 0.0399228 43.3618C-0.146951 46.6297 0.323594 49.902 1.42275 52.9784C2.5219 56.0548 4.22654 58.8705 6.43229 61.2532C8.63803 63.6358 11.2985 65.5353 14.2507 66.8353C17.203 68.1353 20.3849 68.8085 23.6017 68.8136H87.7634C92.9039 68.8195 97.8544 66.8371 101.612 63.2678C105.37 59.6985 107.654 54.8092 108.002 49.5903C108.35 44.3715 106.735 39.2132 103.485 35.1604C100.235 31.1075 95.5929 28.4632 90.4987 27.763Z" fill="#CFD6CF"/>
<rect width="7.2876" height="21.8885" rx="3.6438" transform="matrix(0.933147 0.359496 -0.348695 0.937236 25.2216 76.7892)" fill="#00A6CA"/>
<rect width="7.2876" height="34.5875" rx="3.6438" transform="matrix(0.933147 0.359496 -0.348695 0.937236 40.2039 76.7892)" fill="#00A6CA"/>
<rect width="7.2876" height="28.3678" rx="3.6438" transform="matrix(0.933147 0.359496 -0.348695 0.937236 55.2804 76.7892)" fill="#00A6CA"/>
<rect width="7.03042" height="32.7698" rx="3.51521" transform="matrix(0.933147 0.359496 -0.348695 0.937236 70.357 76.7892)" fill="#00A6CA"/>
<rect width="7.03042" height="26.1152" rx="3.51521" transform="matrix(0.933147 0.359496 -0.348695 0.937236 84.4888 76.7892)" fill="#00A6CA"/>
</svg>
