<svg width="19" height="20" viewBox="0 0 19 20" fill="none" xmlns="http://www.w3.org/2000/svg">
<path d="M8 17.1315C9.77498 17.1311 11.4988 16.5265 12.897 15.4138L17.293 19.8871L18.707 18.4483L14.311 13.9749C15.405 12.552 15.9996 10.7974 16 8.99075C16 4.50215 12.411 0.850006 8 0.850006C3.589 0.850006 0 4.50215 0 8.99075C0 13.4793 3.589 17.1315 8 17.1315ZM8 2.88519C11.309 2.88519 14 5.62353 14 8.99075C14 12.358 11.309 15.0963 8 15.0963C4.691 15.0963 2 12.358 2 8.99075C2 5.62353 4.691 2.88519 8 2.88519Z" fill="white" fill-opacity="0.8"/>
</svg>
