<svg width="43" height="42" viewBox="0 0 43 42" fill="none" xmlns="http://www.w3.org/2000/svg">
<path d="M36.0158 10.8263C35.4577 8.01261 34.014 5.45123 31.8959 3.51671C29.7778 1.58219 27.0964 0.375988 24.2437 0.0744744C21.3911 -0.22704 18.5168 0.391945 16.0411 1.84092C13.5654 3.2899 11.6181 5.49288 10.4841 8.12775C9.21227 7.98124 7.92396 8.09585 6.69801 8.46456C5.47206 8.83326 4.33427 9.44831 3.35428 10.272C2.3743 11.0958 1.57276 12.1109 0.998728 13.2551C0.424697 14.3994 0.0902584 15.6488 0.0158881 16.9269C-0.0584822 18.2049 0.128781 19.4847 0.566212 20.6878C1.00364 21.891 1.68204 22.9922 2.55986 23.924C3.43768 24.8558 4.49646 25.5987 5.67137 26.1071C6.84628 26.6155 8.1126 26.8788 9.39279 26.8808H34.9273C36.973 26.8831 38.9431 26.1078 40.4386 24.7119C41.9341 23.316 42.8431 21.4038 42.9815 19.3628C43.1199 17.3217 42.4773 15.3044 41.184 13.7194C39.8906 12.1343 38.0432 11.1002 36.0158 10.8263Z" fill="#CFD6CF"/>
<circle cx="9" cy="32" r="3" fill="#EFEFEF"/>
<circle cx="19.5" cy="32.5" r="3.5" fill="#EFEFEF"/>
<circle cx="28" cy="31" r="2" fill="#EFEFEF"/>
<circle cx="26" cy="39" r="2" fill="#EFEFEF"/>
<circle cx="13" cy="39" r="2" fill="#EFEFEF"/>
<circle cx="35" cy="31" r="2" fill="#EFEFEF"/>
<circle cx="35" cy="39" r="3" fill="#EFEFEF"/>
</svg>
