<svg width="37" height="37" viewBox="0 0 37 37" fill="none" xmlns="http://www.w3.org/2000/svg">
<path fill-rule="evenodd" clip-rule="evenodd" d="M18.5 0C18.946 0 19.3738 0.177191 19.6892 0.492593C20.0046 0.807995 20.1818 1.23577 20.1818 1.68182V3.36364C20.1818 3.80968 20.0046 4.23746 19.6892 4.55286C19.3738 4.86826 18.946 5.04545 18.5 5.04545C18.054 5.04545 17.6262 4.86826 17.3108 4.55286C16.9954 4.23746 16.8182 3.80968 16.8182 3.36364V1.68182C16.8182 1.23577 16.9954 0.807995 17.3108 0.492593C17.6262 0.177191 18.054 0 18.5 0ZM3.85641 3.85641C4.1718 3.54112 4.5995 3.364 5.04545 3.364C5.49141 3.364 5.91911 3.54112 6.2345 3.85641L7.91632 5.53823C8.22267 5.85542 8.39219 6.28025 8.38836 6.72122C8.38453 7.16219 8.20765 7.58401 7.89583 7.89583C7.58401 8.20765 7.16219 8.38453 6.72122 8.38836C6.28025 8.39219 5.85542 8.22267 5.53823 7.91632L3.85641 6.2345C3.54112 5.91911 3.364 5.49141 3.364 5.04545C3.364 4.5995 3.54112 4.1718 3.85641 3.85641ZM33.1436 3.85641C33.4589 4.1718 33.636 4.5995 33.636 5.04545C33.636 5.49141 33.4589 5.91911 33.1436 6.2345L31.4618 7.91632C31.3066 8.07695 31.121 8.20507 30.9159 8.29322C30.7107 8.38136 30.49 8.42775 30.2667 8.42969C30.0434 8.43163 29.8219 8.38908 29.6152 8.30452C29.4085 8.21996 29.2207 8.09507 29.0628 7.93716C28.9049 7.77925 28.78 7.59148 28.6955 7.38479C28.6109 7.1781 28.5684 6.95664 28.5703 6.73333C28.5722 6.51001 28.6186 6.28933 28.7068 6.08414C28.7949 5.87895 28.923 5.69337 29.0837 5.53823L30.7655 3.85641C31.0809 3.54112 31.5086 3.364 31.9545 3.364C32.4005 3.364 32.8282 3.54112 33.1436 3.85641ZM18.5 10.0909C16.2698 10.0909 14.1309 10.9769 12.5539 12.5539C10.9769 14.1309 10.0909 16.2698 10.0909 18.5C10.0909 20.7302 10.9769 22.8691 12.5539 24.4461C14.1309 26.0231 16.2698 26.9091 18.5 26.9091C20.7302 26.9091 22.8691 26.0231 24.4461 24.4461C26.0231 22.8691 26.9091 20.7302 26.9091 18.5C26.9091 16.2698 26.0231 14.1309 24.4461 12.5539C22.8691 10.9769 20.7302 10.0909 18.5 10.0909ZM0 18.5C0 18.054 0.177191 17.6262 0.492593 17.3108C0.807995 16.9954 1.23577 16.8182 1.68182 16.8182H3.36364C3.80968 16.8182 4.23746 16.9954 4.55286 17.3108C4.86826 17.6262 5.04545 18.054 5.04545 18.5C5.04545 18.946 4.86826 19.3738 4.55286 19.6892C4.23746 20.0046 3.80968 20.1818 3.36364 20.1818H1.68182C1.23577 20.1818 0.807995 20.0046 0.492593 19.6892C0.177191 19.3738 0 18.946 0 18.5ZM31.9545 18.5C31.9545 18.054 32.1317 17.6262 32.4471 17.3108C32.7625 16.9954 33.1903 16.8182 33.6364 16.8182H35.3182C35.7642 16.8182 36.192 16.9954 36.5074 17.3108C36.8228 17.6262 37 18.054 37 18.5C37 18.946 36.8228 19.3738 36.5074 19.6892C36.192 20.0046 35.7642 20.1818 35.3182 20.1818H33.6364C33.1903 20.1818 32.7625 20.0046 32.4471 19.6892C32.1317 19.3738 31.9545 18.946 31.9545 18.5ZM5.53823 29.0837C5.85542 28.7773 6.28025 28.6078 6.72122 28.6116C7.16219 28.6155 7.58401 28.7923 7.89583 29.1042C8.20765 29.416 8.38453 29.8378 8.38836 30.2788C8.39219 30.7197 8.22267 31.1446 7.91632 31.4618L6.2345 33.1436C5.9173 33.4499 5.49247 33.6195 5.05151 33.6156C4.61054 33.6118 4.18872 33.4349 3.8769 33.1231C3.56507 32.8113 3.3882 32.3895 3.38437 31.9485C3.38053 31.5075 3.55005 31.0827 3.85641 30.7655L5.53823 29.0837ZM30.7655 33.1436L29.0837 31.4618C28.7773 31.1446 28.6078 30.7197 28.6116 30.2788C28.6155 29.8378 28.7923 29.416 29.1042 29.1042C29.416 28.7923 29.8378 28.6155 30.2788 28.6116C30.7197 28.6078 31.1446 28.7773 31.4618 29.0837L33.1436 30.7655C33.4499 31.0827 33.6195 31.5075 33.6156 31.9485C33.6118 32.3895 33.4349 32.8113 33.1231 33.1231C32.8113 33.4349 32.3895 33.6118 31.9485 33.6156C31.5075 33.6195 31.0827 33.4499 30.7655 33.1436ZM18.5 31.9545C18.946 31.9545 19.3738 32.1317 19.6892 32.4471C20.0046 32.7625 20.1818 33.1903 20.1818 33.6364V35.3182C20.1818 35.7642 20.0046 36.192 19.6892 36.5074C19.3738 36.8228 18.946 37 18.5 37C18.054 37 17.6262 36.8228 17.3108 36.5074C16.9954 36.192 16.8182 35.7642 16.8182 35.3182V33.6364C16.8182 33.1903 16.9954 32.7625 17.3108 32.4471C17.6262 32.1317 18.054 31.9545 18.5 31.9545Z" fill="#ECA824"/>
<path d="M18.5 8.40912C15.8237 8.40912 13.257 9.47227 11.3646 11.3647C9.4722 13.2571 8.40906 15.8238 8.40906 18.5C8.40906 21.1763 9.4722 23.743 11.3646 25.6354C13.257 27.5278 15.8237 28.5909 18.5 28.5909C21.1762 28.5909 23.7429 27.5278 25.6353 25.6354C27.5277 23.743 28.5909 21.1763 28.5909 18.5C28.5909 15.8238 27.5277 13.2571 25.6353 11.3647C23.7429 9.47227 21.1762 8.40912 18.5 8.40912Z" fill="#ECA824"/>
</svg>
