<svg width="46" height="44" viewBox="0 0 46 44" fill="none" xmlns="http://www.w3.org/2000/svg">
<path d="M36.9851 12.904C36.6225 9.6363 35.1604 6.58876 32.8385 4.26102C30.5167 1.93328 27.4729 0.463485 24.2061 0.0926013C20.9393 -0.278283 17.6435 0.471757 14.8589 2.21975C12.0743 3.96774 9.96623 6.60996 8.88031 9.71321C6.39194 9.91689 4.0788 11.0752 2.42511 12.9457C0.771413 14.8162 -0.094647 17.2539 0.00821769 19.7484C0.111082 22.243 1.1749 24.6011 2.97698 26.3291C4.77906 28.0571 7.1797 29.021 9.67639 29.0191H37.0721C39.2091 29.0191 41.2586 28.1702 42.7697 26.6591C44.2808 25.1481 45.1297 23.0986 45.1297 20.9616C45.1297 18.8246 44.2808 16.7751 42.7697 15.264C41.2586 13.7529 39.2091 12.904 37.0721 12.904H36.9851Z" fill="#CFD6CF"/>
<path d="M37.7147 34.0752C37.6822 34.0055 37.6123 33.9607 37.5353 33.9607H35.1886L37.5046 30.304C37.5432 30.243 37.5456 30.1658 37.5107 30.1026C37.4759 30.0392 37.4093 30 37.3372 30H34.1687C34.0936 30 34.0251 30.0424 33.9914 30.1095L31.0209 36.0506C30.9902 36.1118 30.9935 36.1847 31.0296 36.2431C31.0658 36.3015 31.1294 36.3372 31.1981 36.3372H33.2345L31.0155 41.6073C30.9777 41.6974 31.0114 41.802 31.0947 41.8531C31.1268 41.8727 31.1624 41.8822 31.1979 41.8822C31.2547 41.8822 31.3108 41.8578 31.3496 41.8119L37.6868 34.2865C37.7365 34.2275 37.7472 34.1451 37.7147 34.0752Z" fill="#ECA824"/>
<path d="M26.9115 34.8015C26.8733 34.7194 26.7909 34.6667 26.7001 34.6667H23.9351L26.6639 30.3582C26.7094 30.2863 26.7122 30.1953 26.6712 30.1209C26.6301 30.0462 26.5517 30 26.4668 30H22.7334C22.645 30 22.5643 30.0499 22.5246 30.129L19.0246 37.129C18.9884 37.2012 18.9924 37.287 19.0349 37.3558C19.0776 37.4247 19.1525 37.4667 19.2334 37.4667H21.6328L19.0183 43.6761C18.9737 43.7823 19.0134 43.9055 19.1116 43.9657C19.1494 43.9888 19.1914 44 19.2332 44C19.3001 44 19.3662 43.9713 19.4119 43.9172L26.8786 35.0505C26.9372 34.981 26.9498 34.8839 26.9115 34.8015Z" fill="#ECA824"/>
<path d="M14.7147 34.0752C14.6822 34.0055 14.6123 33.9607 14.5353 33.9607H12.1886L14.5046 30.304C14.5432 30.243 14.5456 30.1658 14.5107 30.1026C14.4759 30.0392 14.4093 30 14.3372 30H11.1687C11.0936 30 11.0251 30.0424 10.9914 30.1095L8.02088 36.0506C7.99018 36.1118 7.99354 36.1847 8.02959 36.2431C8.06584 36.3015 8.1294 36.3372 8.19812 36.3372H10.2345L8.01552 41.6073C7.97769 41.6974 8.01137 41.802 8.09473 41.8531C8.1268 41.8727 8.16245 41.8822 8.19791 41.8822C8.25474 41.8822 8.31079 41.8578 8.34962 41.8119L14.6868 34.2865C14.7365 34.2275 14.7472 34.1451 14.7147 34.0752Z" fill="#ECA824"/>
</svg>
